<svg width="1394" height="770" viewBox="0 0 1394 770" fill="none" xmlns="http://www.w3.org/2000/svg">
<path d="M696.759 459.812C673.932 515.386 651.48 571.237 629.406 627.365C598.804 705.17 542.847 741.868 480.313 741.938C415.545 742.007 350.802 742.018 286.084 741.972C280.344 741.972 277.189 738.026 276.62 730.133L262.01 523.626C261.986 523.322 262.007 523.015 262.071 522.722C262.135 522.429 262.242 522.157 262.385 521.921C262.527 521.684 262.703 521.489 262.902 521.347C263.1 521.204 263.318 521.117 263.541 521.091L276.419 519.668C277.474 519.552 278.193 520.177 278.578 521.542C303.808 608.687 373.848 683.818 439.243 701.664C462.088 707.89 484.531 708.179 506.572 702.532C560.52 688.644 586.177 643.475 611.758 580.356C656.627 469.487 701.521 358.642 746.44 247.819C759.912 214.559 768.373 194.595 771.82 187.929C794.213 144.392 824.522 116.825 862.746 105.229C873.792 101.873 890.436 99.9633 912.678 99.5004C990.35 97.9265 1052.28 97.5908 1098.47 98.4935C1110.7 98.7365 1112.73 112.485 1113.59 127.449C1117.2 190.197 1121.66 253.71 1126.97 317.986C1127.2 320.949 1126.25 322.557 1124.1 322.812L1110.22 324.513C1109.79 324.575 1109.36 324.433 1109 324.111C1108.64 323.789 1108.37 323.306 1108.24 322.742C1090.24 246.916 1030.14 181.263 979.806 152.759C953.347 137.784 924.301 131.685 892.67 134.462C862.713 137.101 837.132 152.736 815.928 181.367C808.497 191.366 800.464 206.481 791.828 226.71C775.51 264.901 758.515 309.827 744.959 342.706C728.876 381.753 712.809 420.788 696.759 459.812Z" fill="#F0F0F0"/>
<path d="M576.952 606.12C576.727 549.338 517.148 508.993 483.988 492.834C476.586 489.235 465.081 484.46 449.474 478.509C396.413 458.301 333.501 436.848 301.093 368.648C269.286 301.625 283.798 219.757 328.663 172.941C360.195 140 398.443 129.308 437.393 133.114C480.203 137.301 522.888 161.28 558.43 194.567C559.055 195.156 559.771 195.535 560.521 195.677C561.271 195.818 562.035 195.717 562.752 195.382C563.468 195.046 564.119 194.485 564.652 193.744C565.185 193.002 565.586 192.099 565.824 191.107C576.1 148.339 611.642 126.851 642.045 129.17C676.667 131.799 702.333 155.052 719.043 198.927C721.599 205.616 723.187 214.313 723.805 225.016C726.337 269.134 703.879 307.922 675.055 318.026C639.764 330.413 603.12 307.957 578.456 271.902C543.792 221.141 501.608 173.564 452.031 161.176C411.176 151.003 351.698 159.031 330.694 218.546C309.113 279.756 358.841 322.386 392.102 341.59C462.357 382.108 547.752 384.081 592.116 473.561C601.29 492.061 605.075 512.787 603.471 535.74C601.666 561.691 591.289 586.604 579.384 607.262C579.212 607.574 578.973 607.804 578.701 607.918C578.43 608.033 578.139 608.027 577.87 607.9C577.601 607.774 577.368 607.534 577.203 607.215C577.038 606.895 576.951 606.512 576.952 606.12ZM699.528 277.204C703.697 269.863 706.616 261.283 708.116 251.954C709.616 242.626 709.668 232.731 708.27 222.836C706.872 212.94 704.051 203.237 699.968 194.281C695.885 185.325 690.62 177.29 684.473 170.637C672.06 157.2 656.809 150.203 642.077 151.185C627.345 152.167 614.338 161.048 605.917 175.874C601.747 183.215 598.829 191.795 597.329 201.123C595.829 210.452 595.777 220.346 597.174 230.242C598.572 240.138 601.393 249.841 605.477 258.797C609.56 267.753 614.825 275.787 620.971 282.441C633.385 295.878 648.635 302.875 663.367 301.893C678.1 300.911 691.107 292.03 699.528 277.204Z" fill="#F0F0F0"/>
<path d="M1108.99 554.024C1108.31 628.884 1063.68 683.084 1013.31 700.653C988.709 709.241 965.655 712.169 944.147 709.438C902.212 704.126 860.529 678.466 825.823 646.488C825.349 646.053 824.808 645.774 824.244 645.674C823.679 645.573 823.105 645.654 822.566 645.909C822.028 646.164 821.539 646.588 821.139 647.146C820.738 647.704 820.436 648.382 820.257 649.127C804.138 715.167 745.202 726.417 704.124 699.23C670.803 677.147 650.427 631.488 664.532 581.072C674.808 544.302 696.745 522.81 725.129 519.407C762.606 514.893 792.804 547.393 817.788 581.836C842.798 616.35 865.944 646.418 897.855 665.862C935.306 688.709 974.848 692.286 1013.89 675.515C1039.6 664.474 1063.1 635.724 1066.9 598.399C1070.76 560.552 1048.22 529.164 1025.09 512.046C1001.25 494.384 976.108 481.213 949.662 472.533C917.676 462.024 888.183 448.32 861.184 431.423C827.132 410.104 782.226 362.813 784.392 303.612C785.374 276.599 799.503 248.023 811.693 227.468C811.807 227.272 811.962 227.128 812.136 227.054C812.311 226.981 812.497 226.982 812.671 227.057C812.845 227.132 812.999 227.278 813.112 227.475C813.225 227.672 813.293 227.912 813.305 228.163C815.774 272.606 855.19 310.973 881.459 328.924C903.908 344.271 932.779 357.361 968.073 368.195C1005.87 379.768 1038.2 399.988 1065.06 428.853C1094.82 460.797 1109.46 502.521 1108.99 554.024ZM780.881 667.356C785.057 659.934 787.947 651.254 789.387 641.811C790.827 632.368 790.788 622.347 789.272 612.321C787.757 602.294 784.794 592.459 780.554 583.375C776.314 574.292 770.879 566.139 764.56 559.381C751.798 545.734 736.208 538.6 721.22 539.549C706.232 540.497 693.074 549.451 684.64 564.44C680.464 571.862 677.574 580.543 676.134 589.985C674.694 599.428 674.733 609.449 676.249 619.476C677.764 629.502 680.727 639.338 684.967 648.421C689.207 657.504 694.642 665.658 700.961 672.415C713.723 686.063 729.313 693.197 744.301 692.248C759.289 691.299 772.447 682.345 780.881 667.356Z" fill="#F0F0F0"/>
<path d="M225.2 769.6C213.2 769.6 200.667 768.4 187.6 766C174.8 763.867 162.4 760 150.4 754.4C138.4 748.8 127.467 741.2 117.6 731.6C107.733 722.267 99.8667 710.4 94 696C88.4 681.867 85.6 664.933 85.6 645.2V529.6C85.6 511.2 82 496.4 74.8 485.2C67.6 474 58.6667 466 48 461.2C37.3333 456.133 26.8 453.6 16.4 453.6V398C26.8 398 37.3333 395.467 48 390.4C58.6667 385.067 67.6 376.8 74.8 365.6C82 354.133 85.6 339.333 85.6 321.2V196C85.6 175.733 88.5333 158.4 94.4 144C100.267 129.6 108.133 117.733 118 108.4C127.867 99.0666 138.8 91.7333 150.8 86.4C162.8 81.0666 175.2 77.3333 188 75.2C201.067 72.8 213.467 71.6 225.2 71.6V126C219.067 126 211.867 127.067 203.6 129.2C195.333 131.067 187.333 134.8 179.6 140.4C171.867 145.733 165.467 153.6 160.4 164C155.333 174.4 152.8 188.133 152.8 205.2V339.2C152.8 353.6 150.667 365.867 146.4 376C142.4 385.867 137.067 394 130.4 400.4C123.733 406.533 116.8 411.333 109.6 414.8C102.667 418 96.4 420.4 90.8 422C85.2 423.333 81.2 424.533 78.8 425.6C81.2 425.867 85.2 426.8 90.8 428.4C96.4 430 102.667 432.533 109.6 436C116.8 439.467 123.6 444.4 130 450.8C136.667 456.933 142.133 465.067 146.4 475.2C150.667 485.067 152.8 497.333 152.8 512V635.6C152.8 652.4 155.333 666 160.4 676.4C165.467 687.067 171.867 695.2 179.6 700.8C187.333 706.4 195.333 710.133 203.6 712C211.867 714.133 219.067 715.2 225.2 715.2V769.6Z" fill="#059669"/>
<path d="M1185 769.6V715.2C1191.4 715.2 1198.6 714.133 1206.6 712C1214.6 710.133 1222.47 706.4 1230.2 700.8C1238.2 695.2 1244.73 687.067 1249.8 676.4C1254.87 666 1257.4 652.4 1257.4 635.6V512C1257.4 497.333 1259.53 485.067 1263.8 475.2C1268.07 465.067 1273.53 456.933 1280.2 450.8C1286.87 444.4 1293.53 439.467 1300.2 436C1307.13 432.533 1313.53 430 1319.4 428.4C1325.27 426.8 1329.27 425.867 1331.4 425.6C1329.27 424.533 1325.27 423.333 1319.4 422C1313.53 420.4 1307.13 418 1300.2 414.8C1293.53 411.333 1286.87 406.533 1280.2 400.4C1273.53 394 1268.07 385.867 1263.8 376C1259.53 365.867 1257.4 353.6 1257.4 339.2V205.2C1257.4 188.133 1254.87 174.4 1249.8 164C1244.73 153.6 1238.2 145.733 1230.2 140.4C1222.47 134.8 1214.6 131.067 1206.6 129.2C1198.6 127.067 1191.4 126 1185 126V71.6C1196.73 71.6 1209 72.8 1221.8 75.2C1234.6 77.3333 1247.13 81.0666 1259.4 86.4C1271.67 91.7333 1282.6 99.0666 1292.2 108.4C1302.07 117.733 1309.8 129.6 1315.4 144C1321.27 158.4 1324.2 175.733 1324.2 196V321.2C1324.2 339.333 1327.8 354.133 1335 365.6C1342.2 376.8 1351.13 385.067 1361.8 390.4C1372.73 395.467 1383.27 398 1393.4 398V453.6C1383.27 453.6 1372.73 456.133 1361.8 461.2C1351.13 466 1342.2 474 1335 485.2C1327.8 496.4 1324.2 511.2 1324.2 529.6V645.2C1324.2 664.933 1321.27 681.867 1315.4 696C1309.8 710.4 1302.2 722.267 1292.6 731.6C1283 741.2 1272.07 748.8 1259.8 754.4C1247.53 760 1235 763.867 1222.2 766C1209.4 768.4 1197 769.6 1185 769.6Z" fill="#059669"/>
</svg>
