<svg width="916" height="451" viewBox="0 0 916 451" fill="none" xmlns="http://www.w3.org/2000/svg">
<path d="M459.991 246.086C444.922 274.822 430.102 303.702 415.53 332.725C395.33 372.956 358.392 391.932 317.112 391.968C274.358 392.004 231.62 392.01 188.898 391.986C185.109 391.986 183.027 389.945 182.651 385.864L173.006 279.083C172.991 278.926 173.004 278.767 173.047 278.615C173.089 278.464 173.16 278.323 173.254 278.201C173.348 278.079 173.464 277.978 173.595 277.905C173.726 277.831 173.87 277.786 174.017 277.772L182.518 277.036C183.214 276.976 183.689 277.299 183.944 278.006C200.598 323.066 246.832 361.915 290.001 371.143C305.081 374.362 319.896 374.512 334.446 371.592C370.058 364.411 386.994 341.055 403.88 308.417C433.499 251.089 463.135 193.773 492.786 136.469C501.68 119.27 507.264 108.948 509.54 105.501C524.322 82.9883 544.329 68.7341 569.562 62.738C576.854 61.0026 587.841 60.0152 602.523 59.7758C653.795 58.962 694.677 58.7884 725.169 59.2552C733.239 59.3809 734.581 66.49 735.145 74.2275C737.531 106.674 740.475 139.515 743.977 172.75C744.132 174.282 743.502 175.114 742.088 175.246L732.924 176.126C732.642 176.158 732.359 176.084 732.12 175.918C731.882 175.751 731.704 175.501 731.615 175.21C719.733 136.002 680.061 102.054 646.835 87.3149C629.369 79.5714 610.195 76.4177 589.315 77.8539C569.54 79.2183 552.654 87.3029 538.656 102.108C533.751 107.278 528.448 115.093 522.748 125.554C511.976 145.301 500.757 168.532 491.809 185.533C481.192 205.723 470.586 225.908 459.991 246.086Z" fill="#F3F4F6"/>
<path d="M380.748 322.027C380.599 292.628 341.196 271.739 319.265 263.373C314.369 261.51 306.76 259.038 296.439 255.956C261.346 245.494 219.738 234.387 198.304 199.077C177.268 164.376 186.866 121.989 216.539 97.7502C237.392 80.6952 262.688 75.1595 288.449 77.1301C316.762 79.2978 344.992 91.7129 368.498 108.947C368.911 109.252 369.385 109.448 369.881 109.522C370.377 109.595 370.882 109.543 371.356 109.369C371.83 109.195 372.261 108.905 372.613 108.521C372.966 108.137 373.231 107.669 373.388 107.155C380.184 85.0127 403.69 73.8875 423.798 75.0878C446.696 76.4493 463.67 88.4882 474.722 111.204C476.412 114.668 477.462 119.17 477.871 124.712C479.545 147.554 464.693 167.636 445.629 172.867C422.289 179.281 398.054 167.654 381.743 148.987C358.817 122.706 330.918 98.0726 298.13 91.6591C271.109 86.3921 231.773 90.5484 217.882 121.362C203.609 153.053 236.497 175.125 258.495 185.067C304.959 206.046 361.436 207.067 390.777 253.395C396.844 262.973 399.347 273.704 398.286 285.588C397.093 299.024 390.23 311.923 382.356 322.618C382.242 322.779 382.084 322.898 381.905 322.958C381.725 323.017 381.533 323.014 381.355 322.948C381.177 322.883 381.023 322.759 380.914 322.593C380.805 322.428 380.747 322.23 380.748 322.027ZM461.815 151.732C464.573 147.931 466.503 143.489 467.495 138.659C468.487 133.829 468.521 128.706 467.597 123.583C466.672 118.46 464.807 113.436 462.106 108.799C459.406 104.162 455.924 100.002 451.858 96.5574C443.649 89.6004 433.563 85.9776 423.819 86.4861C414.076 86.9946 405.473 91.5927 399.904 99.2688C397.146 103.07 395.217 107.512 394.224 112.342C393.232 117.171 393.198 122.294 394.122 127.418C395.047 132.541 396.912 137.565 399.613 142.202C402.313 146.839 405.795 150.998 409.861 154.443C418.07 161.4 428.156 165.023 437.9 164.514C447.643 164.006 456.246 159.408 461.815 151.732Z" fill="#F3F4F6"/>
<path d="M731.993 294.895C731.544 333.557 702.123 361.55 668.915 370.624C652.699 375.059 637.501 376.571 623.322 375.16C595.676 372.417 568.197 359.165 545.317 342.649C545.005 342.424 544.649 342.28 544.276 342.229C543.904 342.177 543.526 342.218 543.171 342.35C542.816 342.482 542.493 342.701 542.229 342.989C541.965 343.277 541.766 343.627 541.648 344.012C531.022 378.119 492.169 383.929 465.088 369.888C443.122 358.483 429.689 334.902 438.987 308.865C445.762 289.874 460.224 278.774 478.936 277.017C503.642 274.686 523.55 291.47 540.021 309.259C556.508 327.084 571.767 342.613 592.804 352.655C617.494 364.455 643.561 366.302 669.297 357.641C686.25 351.938 701.741 337.09 704.248 317.813C706.788 298.267 691.928 282.056 676.686 273.215C660.968 264.094 644.392 257.291 626.958 252.808C605.871 247.381 586.428 240.303 568.629 231.576C546.181 220.566 516.576 196.142 518.004 165.567C518.652 151.616 527.967 136.858 536.003 126.242C536.078 126.14 536.18 126.066 536.295 126.028C536.41 125.99 536.533 125.991 536.647 126.029C536.762 126.068 536.863 126.143 536.938 126.245C537.013 126.347 537.057 126.471 537.065 126.6C538.693 149.554 564.677 169.369 581.995 178.64C596.794 186.566 615.828 193.327 639.095 198.921C664.012 204.899 685.325 215.342 703.036 230.249C722.65 246.747 732.303 268.296 731.993 294.895ZM515.69 353.427C518.443 349.593 520.348 345.11 521.297 340.234C522.247 335.357 522.221 330.181 521.222 325.003C520.223 319.825 518.27 314.745 515.475 310.054C512.679 305.363 509.096 301.152 504.931 297.662C496.517 290.614 486.24 286.929 476.359 287.419C466.478 287.909 457.804 292.533 452.244 300.275C449.491 304.108 447.585 308.591 446.636 313.468C445.687 318.345 445.713 323.52 446.712 328.698C447.711 333.877 449.664 338.956 452.459 343.647C455.254 348.339 458.837 352.55 463.003 356.04C471.417 363.088 481.694 366.772 491.575 366.282C501.455 365.792 510.13 361.168 515.69 353.427Z" fill="#F3F4F6"/>
<path d="M916 220.585V229.73H887.215C862.573 229.73 850.252 238.246 850.252 255.279V401.742C850.252 434.583 821.496 451 763.98 451H743.415V441.813H769.715C812.45 441.813 833.817 428.486 833.817 401.829V255.365C833.817 246.798 835.859 240.117 839.99 235.598C844.438 230.934 851.575 227.351 860.118 225.49C851.557 223.634 844.414 220.04 839.99 215.36C835.859 210.884 833.817 204.288 833.817 195.614V49.257C833.817 22.6011 812.45 9.26601 769.715 9.25175H743.415V0H763.98C821.472 0 850.228 16.419 850.252 49.257V195.614C850.252 212.318 862.573 220.671 887.215 220.671L916 220.585ZM28.746 220.585C53.4132 220.585 65.7466 212.261 65.7466 195.614V49.257C65.7466 16.419 94.5049 0 152.021 0H172.586V9.14467H146.287C103.551 9.14467 82.1838 22.5154 82.1838 49.257V195.614C82.1838 204.181 80.138 210.884 76.0106 215.36C71.5857 220.04 64.4445 223.634 55.8849 225.49C64.4211 227.346 71.5546 230.921 76.0106 235.576C80.138 240.095 82.1838 246.67 82.1838 255.344V401.808C82.1838 428.479 103.551 441.806 146.287 441.792H172.586V450.958H152.021C94.5049 450.958 65.7466 434.538 65.7466 401.7V255.365C65.7466 238.346 53.4132 229.83 28.746 229.815H0V220.585H28.746Z" fill="#059669"/>
</svg>
