<svg width="632" height="467" viewBox="0 0 632 467" fill="none" xmlns="http://www.w3.org/2000/svg">
<path d="M275.7 37.1L237.6 28.4L269.4 0.799974H274.5L292.2 139.4L285 140.6L231 43.1L247.2 63.8C235 53 221 44.1 205.2 37.1C189.4 29.9 172.8 26.3 155.4 26.3C129.2 26.3 109.9 32.6 97.5 45.2C85.1 57.6 78.9 74.1 78.9 94.7C78.9 108.7 81.9 120.5 87.9 130.1C93.9 139.5 102 147.4 112.2 153.8C122.6 160.2 134.3 165.8 147.3 170.6C160.5 175.4 174.2 180.3 188.4 185.3C202.6 190.3 216.7 196 230.7 202.4C244.7 208.8 257.4 216.9 268.8 226.7C280.4 236.5 289.6 248.8 296.4 263.6C303.4 278.4 306.9 296.8 306.9 318.8C306.9 345 299.9 368.2 285.9 388.4C272.1 408.4 253.6 424.1 230.4 435.5C207.2 446.7 181.5 452.3 153.3 452.3C132.9 452.3 114.8 450.8 99 447.8C83.2 445 66.9 440.1 50.1 433.1L24.3 319.1H33L109.2 440L63.3 408.8C79.9 418.6 94.8 426.3 108 431.9C121.4 437.3 135.6 440 150.6 440C174.4 440 194.7 436.3 211.5 428.9C228.5 421.5 241.5 410.8 250.5 396.8C259.5 382.8 264 365.8 264 345.8C264 328 260.3 313.3 252.9 301.7C245.7 289.9 236.1 280.2 224.1 272.6C212.3 264.8 199.3 258.2 185.1 252.8C170.9 247.2 156.8 241.7 142.8 236.3C128.8 230.9 115.6 225.2 103.2 219.2C90.8 213.2 79.8 206.1 70.2 197.9C60.6 189.7 53 179.8 47.4 168.2C42 156.6 39.3 142.6 39.3 126.2C39.3 102.4 44.8 81.9 55.8 64.7C67 47.5 82.7 34.2 102.9 24.8C123.3 15.4 147.3 10.7 174.9 10.7C193.9 10.7 211.3 12.8 227.1 17C243.1 21.2 259.3 27.9 275.7 37.1Z" fill="white"/>
<path d="M570.7 40.1L532.6 31.4L564.4 3.79997H569.5L587.2 142.4L580 143.6L526 46.1L542.2 66.8C530 56 516 47.1 500.2 40.1C484.4 32.9 467.8 29.3 450.4 29.3C424.2 29.3 404.9 35.6 392.5 48.2C380.1 60.6 373.9 77.1 373.9 97.7C373.9 111.7 376.9 123.5 382.9 133.1C388.9 142.5 397 150.4 407.2 156.8C417.6 163.2 429.3 168.8 442.3 173.6C455.5 178.4 469.2 183.3 483.4 188.3C497.6 193.3 511.7 199 525.7 205.4C539.7 211.8 552.4 219.9 563.8 229.7C575.4 239.5 584.6 251.8 591.4 266.6C598.4 281.4 601.9 299.8 601.9 321.8C601.9 348 594.9 371.2 580.9 391.4C567.1 411.4 548.6 427.1 525.4 438.5C502.2 449.7 476.5 455.3 448.3 455.3C427.9 455.3 409.8 453.8 394 450.8C378.2 448 361.9 443.1 345.1 436.1L319.3 322.1H328L404.2 443L358.3 411.8C374.9 421.6 389.8 429.3 403 434.9C416.4 440.3 430.6 443 445.6 443C469.4 443 489.7 439.3 506.5 431.9C523.5 424.5 536.5 413.8 545.5 399.8C554.5 385.8 559 368.8 559 348.8C559 331 555.3 316.3 547.9 304.7C540.7 292.9 531.1 283.2 519.1 275.6C507.3 267.8 494.3 261.2 480.1 255.8C465.9 250.2 451.8 244.7 437.8 239.3C423.8 233.9 410.6 228.2 398.2 222.2C385.8 216.2 374.8 209.1 365.2 200.9C355.6 192.7 348 182.8 342.4 171.2C337 159.6 334.3 145.6 334.3 129.2C334.3 105.4 339.8 84.9 350.8 67.7C362 50.5 377.7 37.2 397.9 27.8C418.3 18.4 442.3 13.7 469.9 13.7C488.9 13.7 506.3 15.8 522.1 20C538.1 24.2 554.3 30.9 570.7 40.1Z" fill="white"/>
</svg>
