<svg width="1519" height="770" viewBox="0 0 1519 770" fill="none" xmlns="http://www.w3.org/2000/svg">
<path d="M771.915 459.812C746.625 515.386 721.752 571.237 697.297 627.365C663.394 705.17 601.402 741.868 532.122 741.938C460.368 742.007 388.642 742.018 316.943 741.972C310.583 741.972 307.088 738.026 306.458 730.133L290.271 523.626C290.245 523.322 290.268 523.015 290.339 522.722C290.411 522.429 290.529 522.157 290.687 521.921C290.845 521.684 291.04 521.489 291.26 521.347C291.48 521.204 291.72 521.117 291.968 521.091L306.235 519.668C307.403 519.552 308.201 520.177 308.627 521.542C336.578 608.687 414.173 683.818 486.622 701.664C511.931 707.89 536.795 708.179 561.214 702.532C620.981 688.644 649.405 643.475 677.745 580.356C727.454 469.487 777.19 358.642 826.955 247.819C841.881 214.559 851.253 194.595 855.073 187.929C879.881 144.392 913.459 116.825 955.807 105.229C968.044 101.873 986.483 99.9633 1011.12 99.5004C1097.17 97.9265 1165.79 97.5908 1216.96 98.4935C1230.5 98.7365 1232.76 112.485 1233.7 127.449C1237.71 190.197 1242.65 253.71 1248.53 317.986C1248.79 320.949 1247.73 322.557 1245.36 322.812L1229.98 324.513C1229.5 324.575 1229.03 324.433 1228.63 324.111C1228.23 323.789 1227.93 323.306 1227.78 322.742C1207.84 246.916 1141.26 181.263 1085.49 152.759C1056.18 137.784 1024 131.685 988.959 134.462C955.77 137.101 927.43 152.736 903.938 181.367C895.706 191.366 886.806 206.481 877.239 226.71C859.161 264.901 840.332 309.827 825.314 342.706C807.496 381.753 789.696 420.788 771.915 459.812Z" fill="#F9FAFB"/>
<path d="M639.185 606.12C638.935 549.338 572.931 508.993 536.194 492.834C527.993 489.235 515.247 484.46 497.957 478.509C439.172 458.301 369.474 436.848 333.57 368.648C298.332 301.625 314.41 219.757 364.115 172.941C399.047 140 441.421 129.308 484.573 133.114C532.001 137.301 579.29 161.28 618.665 194.567C619.358 195.156 620.151 195.535 620.982 195.677C621.813 195.818 622.659 195.717 623.453 195.382C624.247 195.046 624.968 194.485 625.559 193.744C626.149 193.002 626.593 192.099 626.856 191.107C638.241 148.339 677.616 126.851 711.299 129.17C749.656 131.799 778.09 155.052 796.603 198.927C799.435 205.616 801.193 214.313 801.878 225.016C804.683 269.134 779.803 307.922 747.87 318.026C708.772 330.413 668.175 307.957 640.851 271.902C602.448 221.141 555.714 173.564 500.789 161.176C455.527 151.003 389.634 159.031 366.364 218.546C342.456 279.756 397.547 322.386 434.396 341.59C512.23 382.108 606.836 384.081 655.985 473.561C666.148 492.061 670.341 512.787 668.564 535.74C666.565 561.691 655.069 586.604 641.879 607.262C641.688 607.574 641.424 607.804 641.123 607.918C640.822 608.033 640.5 608.027 640.202 607.9C639.904 607.774 639.645 607.534 639.463 607.215C639.28 606.895 639.183 606.512 639.185 606.12ZM774.982 277.204C779.602 269.863 782.835 261.283 784.496 251.954C786.158 242.626 786.216 232.731 784.668 222.836C783.119 212.94 779.994 203.237 775.47 194.281C770.947 185.325 765.114 177.29 758.304 170.637C744.551 157.2 727.656 150.203 711.335 151.185C695.014 152.167 680.603 161.048 671.274 175.874C666.655 183.215 663.422 191.795 661.76 201.123C660.098 210.452 660.04 220.346 661.589 230.242C663.137 240.138 666.263 249.841 670.786 258.797C675.31 267.753 681.143 275.787 687.952 282.441C701.705 295.878 718.6 302.875 734.922 301.893C751.243 300.911 765.653 292.03 774.982 277.204Z" fill="#F9FAFB"/>
<path d="M1228.61 554.024C1227.86 628.884 1178.41 683.084 1122.61 700.653C1095.36 709.241 1069.82 712.169 1045.99 709.438C999.529 704.126 953.35 678.466 914.9 646.488C914.375 646.053 913.777 645.774 913.151 645.674C912.525 645.573 911.889 645.654 911.293 645.909C910.696 646.164 910.155 646.588 909.711 647.146C909.267 647.704 908.933 648.382 908.734 649.127C890.876 715.167 825.584 726.417 780.075 699.23C743.159 677.147 720.586 631.488 736.211 581.072C747.596 544.302 771.899 522.81 803.345 519.407C844.865 514.893 878.32 547.393 905.999 581.836C933.707 616.35 959.349 646.418 994.702 665.862C1036.19 688.709 1080 692.286 1123.25 675.515C1151.74 664.474 1177.77 635.724 1181.98 598.399C1186.25 560.552 1161.28 529.164 1135.67 512.046C1109.25 494.384 1081.4 481.213 1052.1 472.533C1016.66 462.024 983.987 448.32 954.076 431.423C916.351 410.104 866.601 362.813 869 303.612C870.089 276.599 885.742 248.023 899.247 227.468C899.373 227.272 899.544 227.128 899.738 227.054C899.931 226.981 900.137 226.982 900.33 227.057C900.523 227.132 900.693 227.278 900.819 227.475C900.944 227.672 901.019 227.912 901.033 228.163C903.767 272.606 947.435 310.973 976.537 328.924C1001.41 344.271 1033.39 357.361 1072.49 368.195C1114.37 379.768 1150.19 399.988 1179.95 428.853C1212.91 460.797 1229.13 502.521 1228.61 554.024ZM865.11 667.356C869.737 659.934 872.939 651.254 874.534 641.811C876.129 632.368 876.086 622.347 874.407 612.321C872.728 602.294 869.446 592.459 864.749 583.375C860.051 574.292 854.03 566.139 847.03 559.381C832.891 545.734 815.619 538.6 799.015 539.549C782.41 540.497 767.833 549.451 758.489 564.44C753.863 571.862 750.661 580.543 749.065 589.985C747.47 599.428 747.513 609.449 749.192 619.476C750.871 629.502 754.153 639.338 758.851 648.421C763.548 657.504 769.569 665.658 776.57 672.415C790.709 686.063 807.981 693.197 824.585 692.248C841.19 691.299 855.767 682.345 865.11 667.356Z" fill="#F9FAFB"/>
<path d="M225.2 769.6C213.2 769.6 200.667 768.4 187.6 766C174.8 763.867 162.4 760 150.4 754.4C138.4 748.8 127.467 741.2 117.6 731.6C107.733 722.267 99.8667 710.4 94 696C88.4 681.867 85.6 664.933 85.6 645.2V529.6C85.6 511.2 82 496.4 74.8 485.2C67.6 474 58.6667 466 48 461.2C37.3333 456.133 26.8 453.6 16.4 453.6V398C26.8 398 37.3333 395.467 48 390.4C58.6667 385.067 67.6 376.8 74.8 365.6C82 354.133 85.6 339.333 85.6 321.2V196C85.6 175.733 88.5333 158.4 94.4 144C100.267 129.6 108.133 117.733 118 108.4C127.867 99.0666 138.8 91.7333 150.8 86.4C162.8 81.0666 175.2 77.3333 188 75.2C201.067 72.8 213.467 71.6 225.2 71.6V126C219.067 126 211.867 127.067 203.6 129.2C195.333 131.067 187.333 134.8 179.6 140.4C171.867 145.733 165.467 153.6 160.4 164C155.333 174.4 152.8 188.133 152.8 205.2V339.2C152.8 353.6 150.667 365.867 146.4 376C142.4 385.867 137.067 394 130.4 400.4C123.733 406.533 116.8 411.333 109.6 414.8C102.667 418 96.4 420.4 90.8 422C85.2 423.333 81.2 424.533 78.8 425.6C81.2 425.867 85.2 426.8 90.8 428.4C96.4 430 102.667 432.533 109.6 436C116.8 439.467 123.6 444.4 130 450.8C136.667 456.933 142.133 465.067 146.4 475.2C150.667 485.067 152.8 497.333 152.8 512V635.6C152.8 652.4 155.333 666 160.4 676.4C165.467 687.067 171.867 695.2 179.6 700.8C187.333 706.4 195.333 710.133 203.6 712C211.867 714.133 219.067 715.2 225.2 715.2V769.6Z" fill="#2C9F75"/>
<path d="M1310.23 769.6V715.2C1316.63 715.2 1323.83 714.133 1331.83 712C1339.83 710.133 1347.7 706.4 1355.43 700.8C1363.43 695.2 1369.96 687.067 1375.03 676.4C1380.1 666 1382.63 652.4 1382.63 635.6V512C1382.63 497.333 1384.76 485.067 1389.03 475.2C1393.3 465.067 1398.76 456.933 1405.43 450.8C1412.1 444.4 1418.76 439.467 1425.43 436C1432.36 432.533 1438.76 430 1444.63 428.4C1450.5 426.8 1454.5 425.867 1456.63 425.6C1454.5 424.533 1450.5 423.333 1444.63 422C1438.76 420.4 1432.36 418 1425.43 414.8C1418.76 411.333 1412.1 406.533 1405.43 400.4C1398.76 394 1393.3 385.867 1389.03 376C1384.76 365.867 1382.63 353.6 1382.63 339.2V205.2C1382.63 188.133 1380.1 174.4 1375.03 164C1369.96 153.6 1363.43 145.733 1355.43 140.4C1347.7 134.8 1339.83 131.067 1331.83 129.2C1323.83 127.067 1316.63 126 1310.23 126V71.6C1321.96 71.6 1334.23 72.8 1347.03 75.2C1359.83 77.3333 1372.36 81.0666 1384.63 86.4C1396.9 91.7333 1407.83 99.0666 1417.43 108.4C1427.3 117.733 1435.03 129.6 1440.63 144C1446.5 158.4 1449.43 175.733 1449.43 196V321.2C1449.43 339.333 1453.03 354.133 1460.23 365.6C1467.43 376.8 1476.36 385.067 1487.03 390.4C1497.96 395.467 1508.5 398 1518.63 398V453.6C1508.5 453.6 1497.96 456.133 1487.03 461.2C1476.36 466 1467.43 474 1460.23 485.2C1453.03 496.4 1449.43 511.2 1449.43 529.6V645.2C1449.43 664.933 1446.5 681.867 1440.63 696C1435.03 710.4 1427.43 722.267 1417.83 731.6C1408.23 741.2 1397.3 748.8 1385.03 754.4C1372.76 760 1360.23 763.867 1347.43 766C1334.63 768.4 1322.23 769.6 1310.23 769.6Z" fill="#2C9F75"/>
</svg>
